<?xml version="1.0" encoding="iso-8859-1"?>
<!-- Generator: Adobe Illustrator 19.0.0, SVG Export Plug-In . SVG Version: 6.00 Build 0)  -->
<svg version="1.1" id="Layer_1" xmlns="http://www.w3.org/2000/svg" xmlns:xlink="http://www.w3.org/1999/xlink" x="0px" y="0px"
	 viewBox="0 0 368 368" style="enable-background:new 0 0 368 368;" xml:space="preserve">
<g>
	<g>
		<g>
			<path d="M248,89.2H84c-4.4,0-8,3.6-8,8c0,4.4,3.6,8,8,8h164c4.4,0,8-3.6,8-8C256,92.8,252.4,89.2,248,89.2z"/>
			<path d="M208,185.2H84c-4.4,0-8,3.6-8,8c0,4.4,3.6,8,8,8h124c4.4,0,8-3.6,8-8C216,188.8,212.4,185.2,208,185.2z"/>
			<path d="M240,137.2H84c-4.4,0-8,3.6-8,8c0,4.4,3.6,8,8,8h156c4.4,0,8-3.6,8-8C248,140.8,244.4,137.2,240,137.2z"/>
			<path d="M288,137.2h-12c-4.4,0-8,3.6-8,8c0,4.4,3.6,8,8,8h12c4.4,0,8-3.6,8-8C296,140.8,292.4,137.2,288,137.2z"/>
			<path d="M328,9.2H40c-22,0-40,18-40,40v192c0,22,18,40,40,40h129.2c5.2,0,10.4,1.6,14.8,5.2l91.2,70.8c1.6,1.2,3.2,1.6,4.8,1.6
				c1.2,0,2.4-0.4,3.6-0.8c2.8-1.2,4.4-4,4.4-7.2v-69.6h40c22,0,40-18,40-40v-192C368,27.2,350,9.2,328,9.2z M352,241.2
				c0,13.2-10.8,24-24,24h-40v-24c0-4.4-3.6-8-8-8c-4.4,0-8,3.6-8,8v93.2l-78.4-60.8c-7.2-5.6-15.6-8.4-24.4-8.4H40
				c-13.2,0-24-10.8-24-24v-192c0-13.2,10.8-24,24-24h288c13.2,0,24,10.8,24,24V241.2z"/>
		</g>
	</g>
</g>
<g>
</g>
<g>
</g>
<g>
</g>
<g>
</g>
<g>
</g>
<g>
</g>
<g>
</g>
<g>
</g>
<g>
</g>
<g>
</g>
<g>
</g>
<g>
</g>
<g>
</g>
<g>
</g>
<g>
</g>
</svg>
